<svg xmlns="http://www.w3.org/2000/svg" viewBox="0 0 64 64">
  <defs>
    <linearGradient id="bg" x1="0" y1="0" x2="1" y2="1">
      <stop offset="0%" stop-color="#fff4e7"/>
      <stop offset="100%" stop-color="#f2dcc2"/>
    </linearGradient>
    <linearGradient id="flameOuter" x1="0.5" y1="0" x2="0.5" y2="1">
      <stop offset="0%" stop-color="#dd7a34"/>
      <stop offset="100%" stop-color="#8f4922"/>
    </linearGradient>
    <linearGradient id="flameInner" x1="0.5" y1="0" x2="0.5" y2="1">
      <stop offset="0%" stop-color="#ffd7a6"/>
      <stop offset="100%" stop-color="#f0a357"/>
    </linearGradient>
  </defs>

  <rect x="4" y="4" width="56" height="56" rx="16" fill="url(#bg)"/>
  <path d="M35.8 10.8c1.2 8-4.1 10.8-4.1 16.1 0 2.2 1.1 3.8 3 5.1 1.2-5 6.1-7.2 8.2-12.9 5.8 5.5 8.9 11.3 8.9 17.8 0 10.2-7.7 17.2-19.2 17.2-10.8 0-18.4-6.9-18.4-16.5 0-8.9 5.7-15 13.6-20.5 0 3.8 1.5 6 3.2 7.5.2-5.7 3.5-9.2 4.8-13.8z" fill="url(#flameOuter)"/>
  <path d="M33.4 27.2c3.8 3.8 5.7 7 5.7 10.4 0 5.2-3.5 8.9-8.5 8.9-4.8 0-8.2-3.3-8.2-7.9 0-3.9 2.2-6.8 6.4-10 .3 2.1 1.1 3.7 2.4 4.8.1-2.7 1.3-4.5 2.2-6.2z" fill="url(#flameInner)"/>
</svg>
